<?xml version="1.0" encoding="UTF-8" standalone="no"?>
<!-- Created with Inkscape (http://www.inkscape.org/) -->

<svg
   width="136.52393mm"
   height="19.168636mm"
   viewBox="0 0 136.52392 19.168636"
   version="1.1"
   id="svg2193"
   inkscape:version="1.2.1 (9c6d41e410, 2022-07-14)"
   sodipodi:docname="Title.svg"
   xmlns:inkscape="http://www.inkscape.org/namespaces/inkscape"
   xmlns:sodipodi="http://sodipodi.sourceforge.net/DTD/sodipodi-0.dtd"
   xmlns="http://www.w3.org/2000/svg"
   xmlns:svg="http://www.w3.org/2000/svg">
  <sodipodi:namedview
     id="namedview2195"
     pagecolor="#ffffff"
     bordercolor="#111111"
     borderopacity="1"
     inkscape:showpageshadow="0"
     inkscape:pageopacity="0"
     inkscape:pagecheckerboard="1"
     inkscape:deskcolor="#d1d1d1"
     inkscape:document-units="mm"
     showgrid="false"
     inkscape:zoom="1.6819304"
     inkscape:cx="197.09496"
     inkscape:cy="156.07067"
     inkscape:window-width="1827"
     inkscape:window-height="1051"
     inkscape:window-x="84"
     inkscape:window-y="-9"
     inkscape:window-maximized="1"
     inkscape:current-layer="layer1" />
  <defs
     id="defs2190" />
  <g
     inkscape:label="Ebene 1"
     inkscape:groupmode="layer"
     id="layer1"
     transform="translate(-18.117955,-7.1768634)">
    <g
       aria-label="Tsemchoe        Christian"
       id="text2316"
       style="font-size:19.7556px;font-family:'Edwardian Script ITC';-inkscape-font-specification:'Edwardian Script ITC';letter-spacing:0px;word-spacing:0px;stroke-width:0.264583">
      <path
         d="m 41.027892,11.523247 q 0,0.520899 -1.041799,0.887458 -1.041799,0.356913 -2.546621,0.356913 -1.514467,0 -3.762052,-0.41479 -1.186494,0.617362 -2.170415,1.832795 -0.983922,1.205786 -2.112538,3.424432 -1.128615,2.218647 -1.659161,2.961411 -0.5209,0.733118 -1.437297,1.427651 -2.421219,1.794209 -5.025717,1.794209 -1.389066,0 -2.276524,-0.588423 -0.877813,-0.588424 -0.877813,-1.524114 0,-0.472668 0.279743,-0.810288 0.279742,-0.33762 0.665594,-0.33762 0.627009,0 0.627009,0.655947 0,0.308682 -0.192926,0.530546 -0.192926,0.221865 -0.472668,0.221865 -0.453376,0 -0.453376,-0.443729 0,-0.231511 -0.07717,-0.231511 -0.163987,0 -0.163987,0.472668 0,0.781349 0.800642,1.321541 0.810288,0.540193 1.987135,0.540193 2.585206,0 4.639865,-2.334402 0.964629,-1.090031 2.488743,-3.598066 2.488743,-4.070734 5.19935,-5.353691 -0.5209,-0.08682 -1.562699,-0.318327 -2.450157,-0.530546 -3.752406,-0.530546 -0.135049,0 -0.810289,0.03858 0.453376,0.848874 0.453376,1.938904 0,2.122184 -1.61093,3.983918 -1.610931,1.861733 -3.443726,1.861733 -0.762056,0 -1.244371,-0.501607 -0.472668,-0.511253 -0.472668,-1.311895 0,-1.099677 0.829581,-2.430865 0.839227,-1.340834 2.160769,-2.334402 1.331187,-1.003214 2.913179,-1.398712 -0.762057,-1.032153 -2.170415,-1.032153 -1.186494,0 -2.401926,0.694533 -1.205786,0.684887 -2.122184,1.87138 -0.135048,0.18328 -0.183279,0.18328 -0.05788,0 -0.07717,-0.05788 0,-0.163987 0.790996,-0.954983 1.900319,-1.890672 3.974271,-1.890672 1.61093,0 2.450158,1.128616 1.167201,-0.33762 2.681668,-0.33762 0.781349,0 1.427651,0.09646 0.684886,0.10611 3.356908,0.655948 2.228293,-0.974275 4.282953,-0.974275 2.112537,0 2.112537,0.829581 z m -0.154341,0.01929 q 0,-0.279742 -0.549838,-0.472668 -0.540192,-0.192926 -1.369773,-0.192926 -2.064306,0 -4.00321,0.868166 0.241157,0.03859 1.282956,0.231511 1.543407,0.299035 2.739546,0.299035 0.78135,0 1.340835,-0.212218 0.559484,-0.221865 0.559484,-0.5209 z M 27.397686,12.97019 q 0,-0.771703 -0.356913,-1.427651 -2.160769,0.356913 -4.022503,2.228293 -1.861733,1.87138 -1.861733,3.684882 0,0.694533 0.424436,1.167201 0.434083,0.472669 1.061092,0.472669 1.630223,0 3.192922,-2.006428 1.562699,-2.016075 1.562699,-4.118966 z"
         id="path236" />
      <path
         d="m 33.262629,16.587548 q 0,0.385852 -1.205786,1.53376 -0.05788,0.299035 -0.05788,0.5209 0,0.559485 0.511253,1.774917 0.26045,0.607716 0.26045,1.022507 0,0.868166 -0.848873,1.504821 -0.839227,0.636655 -1.996782,0.636655 -0.655948,0 -1.051446,-0.366559 -0.385851,-0.376205 -0.385851,-1.003214 0,-0.723472 0.511253,-1.408358 0.5209,-0.684887 1.070738,-0.684887 0.09646,0 0.173633,0.03859 l 0.771704,-0.945336 q 0.347266,-0.41479 0.926043,-1.147908 0.163987,-0.675241 0.501607,-1.157555 0.33762,-0.482314 0.665594,-0.482314 0.154341,0 0.154341,0.163986 z m -1.340834,3.810285 q 0,-0.289389 -0.01929,-0.569131 -0.01929,-0.289389 -0.01929,-0.819935 0,-0.434083 0.03859,-0.723472 -0.540192,0.684887 -1.562699,1.929258 0.183279,0.154341 0.183279,0.376205 0,0.569131 -0.93569,0.771704 -0.376205,0.08682 -0.655947,0.41479 -0.270096,0.318328 -0.270096,0.67524 0,0.385852 0.279742,0.646302 0.279742,0.260449 0.694533,0.260449 0.810288,0 1.53376,-0.93569 0.733118,-0.945336 0.733118,-2.02572 z"
         id="path238" />
      <path
         d="m 38.712782,20.339955 q 0,0.02894 -0.173633,0.250803 l -0.41479,0.5209 q -1.996782,2.46945 -3.424433,2.46945 -0.67524,0 -1.138262,-0.482314 -0.453376,-0.491961 -0.453376,-1.225079 0,-1.736332 2.421219,-3.057874 1.27331,-0.694533 2.073952,-0.694533 0.347266,0 0.588424,0.212219 0.250803,0.202572 0.250803,0.501607 0,0.694533 -0.906751,1.186493 -0.906751,0.482315 -3.028935,0.906752 -0.655947,0.993567 -0.655947,1.659161 0,0.829581 0.897104,0.829581 1.524114,0 3.733114,-2.980703 0.115756,-0.154341 0.192926,-0.154341 0.03858,0.0096 0.03858,0.05788 z m -0.810288,-1.784564 q 0,-0.308681 -0.33762,-0.308681 -0.511253,0 -1.350481,0.713826 -0.82958,0.704179 -1.630222,1.832795 1.389065,-0.356913 2.353694,-1.003215 0.964629,-0.655947 0.964629,-1.234725 z"
         id="path240" />
      <path
         d="m 49.439457,20.339955 q -0.0096,0.02894 -0.09646,0.154341 l -0.414791,0.569131 q -1.813502,2.517681 -2.681668,2.517681 -0.453376,0 -0.742764,-0.33762 -0.289389,-0.33762 -0.289389,-0.868166 0,-0.540192 0.366559,-1.167201 0.06752,-0.115756 0.704179,-1.032153 0.810288,-1.157555 0.810288,-1.514467 0,-0.395498 -0.395498,-0.395498 -1.27331,0 -4.369768,5.228288 -0.192926,-0.03859 -0.530546,-0.03859 -0.395498,0 -0.675241,0.03859 l 1.369773,-2.170415 q 1.340835,-2.141476 1.340835,-2.62379 0,-0.434083 -0.356913,-0.434083 -0.530546,0 -1.736332,1.524113 -1.205786,1.524114 -2.39228,3.704175 -0.221864,-0.03859 -0.569131,-0.03859 -0.376205,0 -0.655947,0.03859 l 1.379419,-2.170415 q 1.427651,-2.237939 1.427651,-2.768485 0,-0.289388 -0.221865,-0.289388 -0.472668,0 -1.958197,2.073952 -0.09646,0.135048 -0.15434,0.135048 -0.03859,-0.0096 -0.03859,-0.05788 0,-0.08682 0.887458,-1.205786 0.868166,-1.090031 1.340834,-1.090031 0.308682,0 0.530546,0.299035 0.221865,0.289389 0.221865,0.694533 0,0.559485 -0.569131,1.553053 1.736332,-2.546621 2.585205,-2.546621 0.405144,0 0.665594,0.327974 0.26045,0.327974 0.26045,0.819935 0,0.549838 -0.511253,1.398712 1.832795,-2.546621 2.749192,-2.546621 0.41479,0 0.694533,0.356913 0.289389,0.356913 0.289389,0.868166 0,0.59807 -0.472669,1.398712 -0.0096,0.0096 -0.82958,1.234725 -0.472669,0.694533 -0.472669,1.061092 0,0.395498 0.395498,0.395498 0.752411,0 2.488743,-2.430865 l 0.299035,-0.414791 0.173633,-0.212218 q 0.04823,-0.09646 0.09646,-0.09646 0.05788,0 0.05788,0.05788 z"
         id="path242" />
      <path
         d="m 54.243307,20.339955 q 0,0.125402 -1.360127,1.620576 -1.485529,1.620577 -2.527328,1.620577 -0.67524,0 -1.157555,-0.511253 -0.482314,-0.5209 -0.482314,-1.234725 0,-0.810289 0.655948,-1.678455 0.655947,-0.868166 1.76527,-1.495174 0.935691,-0.540193 1.524114,-0.540193 0.713826,0 0.713826,0.848874 0,0.665594 -0.453376,1.331188 -0.443729,0.665594 -0.887459,0.665594 -0.434083,0 -0.434083,-0.434083 0,-0.511254 0.887459,-0.945337 0.684886,-0.33762 0.684886,-0.887458 0,-0.434083 -0.472668,-0.434083 -0.800642,0 -1.967843,1.591637 -1.167201,1.591638 -1.167201,2.672023 0,0.906751 0.848874,0.906751 1.331188,0 3.607712,-2.999996 0.125402,-0.154341 0.183279,-0.154341 0.03859,0.0096 0.03859,0.05788 z"
         id="path244" />
      <path
         d="m 60.407287,20.320662 q 0,0.07717 -0.09646,0.173634 l -0.41479,0.569131 q -1.813503,2.517681 -2.700961,2.517681 -0.463022,0 -0.762057,-0.327974 -0.289389,-0.33762 -0.289389,-0.839227 0,-0.67524 0.733118,-1.765271 1.147909,-1.6881 1.147909,-2.006428 0,-0.376205 -0.395498,-0.376205 -0.578778,0 -1.581992,1.138262 -0.964629,1.090031 -2.652729,4.128612 -0.289389,-0.05788 -0.491961,-0.05788 -0.212218,0 -0.569131,0.05788 l 1.418005,-2.565913 q 0.289388,-0.549839 0.887458,-1.620577 0.318328,-0.520899 1.958197,-3.318323 l 1.466236,-2.488743 q 0.289388,0.05788 0.491961,0.05788 0.385851,0 0.733118,-0.09646 -1.003215,1.61093 -2.99035,4.823145 -0.05788,0.09646 -1.495175,2.488742 1.813502,-2.691315 2.864948,-2.691315 0.41479,0 0.704179,0.356913 0.299035,0.356913 0.299035,0.868166 0,0.665594 -0.848873,1.919612 -0.945337,1.398712 -0.945337,1.755624 0,0.414791 0.414791,0.414791 0.75241,0 2.488742,-2.430865 l 0.299035,-0.414791 0.173633,-0.212218 q 0.04823,-0.09646 0.115756,-0.09646 0.03858,0 0.03858,0.03858 z"
         id="path246" />
      <path
         d="m 66.137181,20.320662 q 0,0.154341 -0.569131,0.723472 -0.848874,0.848873 -1.562699,0.848873 -0.299035,0 -0.530546,-0.115755 -1.27331,1.803856 -2.392279,1.803856 -0.578778,0 -0.993568,-0.472668 -0.405144,-0.482315 -0.405144,-1.147909 0,-1.485528 1.94855,-2.864947 1.369773,-0.974276 2.257232,-0.974276 0.82958,0 0.82958,0.887459 0,1.109323 -1.1672,2.672022 0.192925,0.115756 0.434083,0.115756 0.434083,0 1.01286,-0.405145 0.578777,-0.405144 0.945336,-0.974275 0.106109,-0.135048 0.154341,-0.135048 0.03858,0 0.03858,0.03858 z M 64.574482,19.02806 q 0,-0.78135 -0.704179,-0.78135 -0.877812,0 -2.141476,1.678454 -1.263664,1.678455 -1.263664,2.826363 0,0.665594 0.636655,0.665594 1.041799,0 2.276524,-1.717039 Q 63.0986,21.3914 63.0986,21.063427 q 0,-0.472669 0.376205,-0.974276 0.376205,-0.501607 0.733118,-0.501607 0.154341,0 0.212219,0.192926 0.15434,-0.33762 0.15434,-0.75241 z"
         id="path248" />
      <path
         d="m 71.018204,20.339955 q 0,0.02894 -0.173633,0.250803 l -0.414791,0.5209 q -1.996781,2.46945 -3.424432,2.46945 -0.67524,0 -1.138262,-0.482314 -0.453376,-0.491961 -0.453376,-1.225079 0,-1.736332 2.421219,-3.057874 1.27331,-0.694533 2.073952,-0.694533 0.347266,0 0.588423,0.212219 0.250804,0.202572 0.250804,0.501607 0,0.694533 -0.906751,1.186493 -0.906751,0.482315 -3.028935,0.906752 -0.655948,0.993567 -0.655948,1.659161 0,0.829581 0.897105,0.829581 1.524114,0 3.733114,-2.980703 0.115756,-0.154341 0.192926,-0.154341 0.03858,0.0096 0.03858,0.05788 z m -0.810288,-1.784564 q 0,-0.308681 -0.33762,-0.308681 -0.511254,0 -1.350481,0.713826 -0.829581,0.704179 -1.630223,1.832795 1.389066,-0.356913 2.353695,-1.003215 0.964629,-0.655947 0.964629,-1.234725 z"
         id="path250" />
      <path
         d="m 115.65159,12.651863 q 0,0.627008 -0.86817,1.302249 0.791,1.167201 0.791,2.151122 0,0.241157 -0.1447,0.241157 -0.11575,0 -0.11575,-0.318327 0,-0.964629 -0.67524,-1.958197 -1.39872,1.041799 -3.81029,1.803856 -2.40192,0.752411 -4.26366,0.752411 -0.26045,0 -0.45337,-0.01929 -1.54341,2.151123 -1.54341,4.147904 0,1.360127 0.83923,2.151123 0.84887,0.790996 2.30546,0.790996 2.74919,0 4.90032,-2.633437 1.30224,-1.591638 1.30224,-3.019289 0,-0.75241 -0.45337,-1.19614 -0.45338,-0.443729 -1.20579,-0.443729 -1.20578,0 -2.59485,1.27331 -1.37942,1.263664 -1.37942,2.363341 0,0.09646 0.0579,0.09646 0.0482,-0.0096 0.0772,-0.03859 0.26045,-0.231511 0.48231,-0.231511 0.49197,0 0.49197,0.530546 0,0.713825 -0.69454,0.713825 -0.63665,0 -0.63665,-0.771703 0,-1.379419 1.39871,-2.7299 1.39871,-1.360127 2.83601,-1.360127 1.85209,0 1.85209,2.035367 0,2.102891 -2.01608,3.839223 -2.00643,1.726686 -4.45658,1.726686 -1.7074,0 -2.8746,-1.147908 -1.15755,-1.147909 -1.15755,-2.836009 0,-1.639869 1.14791,-3.366555 -4.17685,-0.771703 -4.17685,-3.299031 0,-1.504821 1.55305,-2.517681 1.55306,-1.0128608 3.86817,-1.0128608 3.2315,0 6.53053,2.1511228 0.56914,-0.115756 1.16721,-0.115756 1.91961,0 1.91961,0.945337 z m -0.15434,0 q 0,-0.790996 -1.54341,-0.790996 -0.48231,0 -1.14791,0.135048 1.14791,0.790996 1.90032,1.842441 0.791,-0.67524 0.791,-1.186493 z m -0.93569,1.282956 q -0.74277,-1.070738 -1.99679,-1.900319 -1.80385,0.491961 -3.52089,1.697747 -1.71704,1.19614 -2.81672,2.7299 2.01608,0 4.45659,-0.733118 2.45016,-0.742765 3.87781,-1.79421 z m -2.26688,-2.073952 q -2.93247,-1.697747 -6.24115,-1.697747 -2.04501,0 -3.57877,0.964629 -1.52412,0.964629 -1.52412,2.257232 0,2.305463 3.9164,2.980703 2.43086,-3.385848 7.42764,-4.504817 z"
         id="path252" />
      <path
         d="m 120.86058,20.320662 q 0,0.07717 -0.0965,0.173634 l -0.41479,0.569131 q -1.8135,2.517681 -2.70096,2.517681 -0.46302,0 -0.76206,-0.327974 -0.28939,-0.33762 -0.28939,-0.839227 0,-0.67524 0.73312,-1.765271 1.14791,-1.6881 1.14791,-2.006428 0,-0.376205 -0.3955,-0.376205 -0.57877,0 -1.58199,1.138262 -0.96463,1.090031 -2.65273,4.128612 -0.28939,-0.05788 -0.49196,-0.05788 -0.21222,0 -0.56913,0.05788 l 1.418,-2.565913 q 0.28939,-0.549839 0.88746,-1.620577 0.31833,-0.520899 1.9582,-3.318323 l 1.46624,-2.488743 q 0.28938,0.05788 0.49196,0.05788 0.38585,0 0.73311,-0.09646 -1.00321,1.61093 -2.99035,4.823145 -0.0579,0.09646 -1.49517,2.488742 1.8135,-2.691315 2.86495,-2.691315 0.41479,0 0.70418,0.356913 0.29903,0.356913 0.29903,0.868166 0,0.665594 -0.84887,1.919612 -0.94534,1.398712 -0.94534,1.755624 0,0.414791 0.41479,0.414791 0.75241,0 2.48874,-2.430865 l 0.29904,-0.414791 0.17363,-0.212218 q 0.0482,-0.09646 0.11576,-0.09646 0.0386,0 0.0386,0.03858 z"
         id="path254" />
      <path
         d="m 126.37826,20.339955 q 0,0.07717 -0.57878,0.704179 -0.73312,0.810288 -1.37942,0.810288 -0.73312,0 -0.73312,-0.848873 0,-0.270096 0.11576,-0.684887 -0.60772,0.530546 -0.99357,1.051446 -0.37621,0.520899 -1.3119,2.122183 -0.51125,-0.03859 -0.59807,-0.03859 -0.0386,0 -0.58842,0.03859 l 1.58199,-2.565912 q 1.18649,-1.929258 1.18649,-2.39228 0,-0.270096 -0.22186,-0.270096 -0.54019,0 -1.9582,2.073952 -0.0868,0.135048 -0.15434,0.135048 -0.0386,-0.0096 -0.0386,-0.05788 0.01,-0.04823 0.0386,-0.07717 l 0.17364,-0.241157 q 1.48552,-1.97749 2.01607,-1.97749 0.7717,0 0.7717,0.993568 0,0.742764 -0.79099,1.967843 0.5016,-0.578777 0.95498,-0.945336 0.36656,-0.85852 0.90675,-1.437297 0.54984,-0.578778 0.98392,-0.578778 0.29904,0 0.29904,0.26045 0,0.463022 -1.34084,1.321542 -0.21221,0.135048 -0.63665,0.395498 l -0.11576,0.09646 q -0.13504,0.443729 -0.13504,0.733118 0,0.810288 0.60771,0.810288 0.75241,0 1.63987,-1.244371 0.19293,-0.212219 0.24116,-0.212219 0.0579,0 0.0579,0.05788 z"
         id="path256" />
      <path
         d="m 129.53259,16.346391 q 0,0.33762 -0.28939,0.636655 -0.27974,0.289389 -0.61736,0.289389 -0.43408,0 -0.43408,-0.434083 0,-0.318328 0.29903,-0.607716 0.29904,-0.299035 0.62701,-0.299035 0.41479,0 0.41479,0.41479 z m 0.13505,3.993564 q -0.01,0.02894 -0.0965,0.154341 l -0.41479,0.569131 q -1.81351,2.517681 -2.76849,2.517681 -0.45337,0 -0.76205,-0.318327 -0.29904,-0.327974 -0.29904,-0.810289 0,-0.559485 0.66559,-1.697747 l 1.50483,-2.556266 q 0.29903,0.06752 0.47266,0.06752 0.26045,0 0.73312,-0.06752 l -2.18971,3.598066 q -0.47266,0.781349 -0.47266,1.205786 0,0.434083 0.45337,0.434083 0.85852,0 3.01929,-3.057874 0.0482,-0.09646 0.0965,-0.09646 0.0579,0 0.0579,0.05788 z"
         id="path258" />
      <path
         d="m 132.94738,16.587548 q 0,0.385852 -1.20579,1.53376 -0.0579,0.299035 -0.0579,0.5209 0,0.559485 0.51126,1.774917 0.26045,0.607716 0.26045,1.022507 0,0.868166 -0.84888,1.504821 -0.83922,0.636655 -1.99678,0.636655 -0.65595,0 -1.05144,-0.366559 -0.38586,-0.376205 -0.38586,-1.003214 0,-0.723472 0.51126,-1.408358 0.5209,-0.684887 1.07073,-0.684887 0.0965,0 0.17364,0.03859 l 0.7717,-0.945336 q 0.34727,-0.41479 0.92605,-1.147908 0.16398,-0.675241 0.5016,-1.157555 0.33762,-0.482314 0.6656,-0.482314 0.15434,0 0.15434,0.163986 z m -1.34084,3.810285 q 0,-0.289389 -0.0193,-0.569131 -0.0193,-0.289389 -0.0193,-0.819935 0,-0.434083 0.0386,-0.723472 -0.54019,0.684887 -1.5627,1.929258 0.18328,0.154341 0.18328,0.376205 0,0.569131 -0.93569,0.771704 -0.3762,0.08682 -0.65594,0.41479 -0.2701,0.318328 -0.2701,0.67524 0,0.385852 0.27974,0.646302 0.27974,0.260449 0.69453,0.260449 0.81029,0 1.53376,-0.93569 0.73312,-0.945336 0.73312,-2.02572 z"
         id="path260" />
      <path
         d="m 137.09528,18.121308 -0.0772,0.144695 h -1.26366 l -2.15113,3.675236 q -0.39549,0.665594 -0.39549,1.061092 0,0.434083 0.45337,0.434083 0.87781,0 2.96141,-3.057874 0.0675,-0.09646 0.11576,-0.09646 0.0579,0 0.0579,0.05788 -0.01,0.02894 -0.0965,0.154341 l -0.41479,0.569131 q -1.8135,2.517681 -2.7299,2.517681 -0.45337,0 -0.76205,-0.327974 Q 132.494,22.92516 132.494,22.4332 q 0,-0.578778 0.51125,-1.446944 l 1.62058,-2.720253 h -0.98392 l 0.0965,-0.144695 h 0.96463 l 1.12862,-1.87138 q 0.28939,0.07717 0.54984,0.07717 0.27009,0 0.55948,-0.07717 l -1.10932,1.87138 z"
         id="path262" />
      <path
         d="m 139.96024,16.346391 q 0,0.33762 -0.28939,0.636655 -0.27975,0.289389 -0.61737,0.289389 -0.43408,0 -0.43408,-0.434083 0,-0.318328 0.29904,-0.607716 0.29903,-0.299035 0.627,-0.299035 0.4148,0 0.4148,0.41479 z m 0.13504,3.993564 q -0.01,0.02894 -0.0965,0.154341 l -0.41479,0.569131 q -1.8135,2.517681 -2.76848,2.517681 -0.45338,0 -0.76206,-0.318327 -0.29904,-0.327974 -0.29904,-0.810289 0,-0.559485 0.6656,-1.697747 l 1.50482,-2.556266 q 0.29903,0.06752 0.47267,0.06752 0.26045,0 0.73311,-0.06752 l -2.1897,3.598066 q -0.47267,0.781349 -0.47267,1.205786 0,0.434083 0.45337,0.434083 0.85852,0 3.01929,-3.057874 0.0482,-0.09646 0.0965,-0.09646 0.0579,0 0.0579,0.05788 z"
         id="path264" />
      <path
         d="m 146.89591,20.339955 q 0,0.202572 -1.40835,1.87138 -1.13827,1.369773 -1.79421,1.369773 -0.44373,0 -0.72347,-0.327974 -0.27975,-0.33762 -0.27975,-0.839227 0,-0.5209 0.30868,-1.128616 -0.96462,1.350481 -1.47588,1.823149 -0.51125,0.472668 -0.99357,0.472668 -0.51125,0 -0.85852,-0.434083 -0.34726,-0.443729 -0.34726,-1.109323 0,-1.852088 2.61414,-3.279738 1.14791,-0.636656 1.85209,-0.636656 0.59807,0 0.59807,0.578778 0,0.163987 -0.0772,0.434083 l 0.49196,-0.93569 q 0.28939,0.06752 0.51125,0.06752 0.26045,0 0.67524,-0.06752 l -1.70739,2.826362 q -0.88746,1.485529 -0.88746,1.958197 0,0.453376 0.37621,0.453376 0.38585,0 1.23472,-0.877813 0.84888,-0.887458 1.72669,-2.180061 0.0579,-0.09646 0.10611,-0.09646 0.0579,0 0.0579,0.05788 z m -2.65272,-1.601284 q 0,-0.472668 -0.43409,-0.472668 -0.88746,0 -2.3344,1.736332 -1.4373,1.736332 -1.4373,2.80707 0,0.627009 0.55949,0.627009 0.66559,0 2.30546,-2.209 1.34084,-1.813503 1.34084,-2.488743 z"
         id="path266" />
      <path
         d="m 154.64188,20.339955 q 0,0.202572 -1.39871,1.87138 -1.14791,1.369773 -1.80386,1.369773 -0.43408,0 -0.73312,-0.33762 -0.28938,-0.33762 -0.28938,-0.829581 0,-0.434083 0.17363,-0.800642 0.18328,-0.376205 0.93569,-1.475882 0.78135,-1.157555 0.78135,-1.475882 0,-0.395498 -0.41479,-0.395498 -1.40836,0 -4.34083,5.228288 -0.47267,-0.03859 -0.56913,-0.03859 -0.33762,0 -0.63666,0.03859 l 1.50482,-2.382633 q 1.28296,-2.045013 1.28296,-2.556267 0,-0.289388 -0.24116,-0.289388 -0.49196,0 -1.9389,2.073952 -0.0868,0.125402 -0.13505,0.135048 -0.0482,0 -0.0579,-0.05788 0.01,-0.04823 0.0386,-0.07717 l 0.18328,-0.241157 q 1.47588,-1.97749 1.98713,-1.97749 0.32798,0 0.55949,0.299035 0.23151,0.299035 0.23151,0.713826 0,0.617362 -0.72347,1.717039 1.13826,-1.572345 1.74597,-2.151122 0.61737,-0.578778 1.13827,-0.578778 0.42443,0 0.71382,0.347267 0.28939,0.347266 0.28939,0.85852 0,0.646301 -0.88746,1.977489 -0.90675,1.360127 -0.90675,1.736332 0,0.395498 0.3955,0.395498 0.85852,0 2.96141,-3.057874 0.0482,-0.09646 0.0965,-0.09646 0.0579,0 0.0579,0.05788 z"
         id="path268" />
    </g>
    <path
       style="fill:#c00000;fill-opacity:1;stroke:none;stroke-width:0.0185742"
       d="m 83.943348,17.070209 c -0.170701,0.0952 -0.243186,0.135115 -0.415407,0.221227 -0.06794,0.03399 -0.172012,0.09441 -0.231252,0.120903 -0.143087,-0.104933 -0.452149,-0.358805 -0.604588,-0.476192 -0.466344,-0.359113 -0.946822,-0.696237 -1.448791,-1.004086 -1.146978,-0.703443 -2.460493,-1.248951 -3.826294,-1.18916 -0.443676,0.01942 -0.947801,0.187452 -1.281622,0.485438 -0.555459,0.4958 -0.693171,1.341989 -0.418795,2.021361 0.239033,0.591847 0.780742,1.016381 1.347506,1.27588 1.266058,0.579702 2.719381,0.595566 4.049185,0.258834 0.435009,-0.110145 0.868457,-0.258852 1.281623,-0.43356 0.130206,-0.05505 0.453334,-0.168223 0.557227,-0.208274 0.110267,0.08907 0.309075,0.252036 0.408633,0.351593 0.323211,0.323209 0.632899,0.650489 0.924069,1.00301 0.661057,0.800364 1.175842,1.689922 1.666555,2.600394 0.141071,0.261708 0.268844,0.530016 0.395761,0.79869 0.06334,0.134069 0.132073,0.293116 0.196388,0.455289 -0.05269,0.180618 -0.09571,0.323826 -0.128721,0.473425 -0.06522,0.295755 -0.105354,0.607935 -0.118597,0.910139 -0.02359,0.538948 0.02877,1.8225 0.872265,1.580293 0.305769,-0.08786 0.409469,-0.447452 0.453397,-0.725879 0.108678,-0.688809 -0.0056,-1.44272 -0.22432,-2.098891 -0.06898,-0.206934 -0.157561,-0.417451 -0.250081,-0.632486 0.04099,-0.129547 0.111405,-0.348083 0.161722,-0.463394 0.131747,-0.301979 0.276775,-0.601676 0.433598,-0.891562 0.528567,-0.97712 1.173647,-2.023137 1.841503,-2.912288 0.202491,-0.0067 0.597907,-0.0038 0.816099,-0.0038 0.777072,0 1.558695,-0.07792 2.32178,-0.230322 1.453249,-0.290224 3.010887,-0.886677 3.911177,-2.128606 0.18946,-0.261304 0.33972,-0.545993 0.43557,-0.854418 0.0754,-0.242632 0.11237,-0.489152 0.11107,-0.742969 -0.001,-0.192777 -0.0383,-0.39323 -0.099,-0.575815 -0.43018,-1.291467 -1.89754,-1.541716 -3.077194,-1.541716 0.121475,-0.361455 0.331735,-0.699544 0.467885,-1.058731 0.300159,-0.791951 0.456559,-1.6922268 0.258739,-2.5260978 -0.06891,-0.290025 -0.187414,-0.573788 -0.360712,-0.8172659 -1.046008,-1.4705105 -3.16765,-0.9687021 -4.433671,-0.107833 -0.285635,0.1942199 -0.557897,0.4048619 -0.817267,0.6332129 -1.491437,1.313062 -2.475352,3.2795708 -2.77826,5.2326328 -0.06181,0.398662 -0.09178,0.803839 -0.0819,1.207328 0.0044,0.183102 0.01768,0.426465 0.03361,0.610294 -0.120128,0.08356 -0.292373,0.202439 -0.386804,0.258981 -0.333259,0.199542 -0.669509,0.394089 -1.003009,0.593169 -0.103533,0.0618 -0.26074,0.154187 -0.392386,0.229173 -0.07978,-0.05012 -0.266953,-0.178411 -0.350575,-0.24747 -0.264348,-0.218324 -0.521397,-0.443479 -0.748263,-0.701178 -0.932762,-1.059454 -1.714625,-2.534789 -1.428563,-3.993464 0.0915,-0.466509 0.339258,-0.949569 0.802333,-1.136312 0.05814,-0.02345 0.435918,-0.08075 0.359188,-0.169676 -0.206694,-0.239572 -0.730747,0.08964 -0.897842,0.222482 -0.618503,0.491714 -0.811824,1.309556 -0.759872,2.067941 0.08006,1.16927 0.633437,2.375871 1.430217,3.231918 0.2074,0.222835 0.425498,0.433282 0.667001,0.619434 0.14982,0.115475 0.318366,0.238981 0.491162,0.343302 m 1.700598,-3.934612 c 0.13758,-0.0482 0.111446,-0.342883 0.111446,-0.464355 0,-0.470841 -0.0344,-0.930979 -0.130076,-1.39307 -0.343809,-1.6604448 -1.458115,-3.3782837 -3.213288,-3.7582743 -0.25248,-0.054657 -0.52162,-0.08406 -0.780118,-0.066354 -1.230524,0.084269 -2.01746,1.0582795 -2.358464,2.1715245 -0.540585,1.7646838 -0.06956,3.9338188 1.100059,5.3493808 0.288681,0.349383 0.619823,0.66505 0.998365,0.916323 0.125544,0.08333 0.27971,0.203946 0.427208,0.241707 0.063,0.01615 0.176567,-0.01171 0.145325,-0.09958 -0.06635,-0.186614 -0.349382,-0.40046 -0.4781,-0.556948 -0.254876,-0.309889 -0.458766,-0.663787 -0.637673,-1.021583 -0.681452,-1.362921 -1.084383,-3.126379 -0.694231,-4.6249838 0.07692,-0.295406 0.207586,-0.573518 0.361901,-0.835842 0.118782,-0.201899 0.2793,-0.395043 0.448363,-0.556493 0.949627,-0.9068685 2.245811,-0.2786617 3.064026,0.455667 0.439968,0.394874 0.768639,0.941219 1.009417,1.4753198 0.211895,0.47004 0.368383,0.976987 0.45336,1.485938 0.07116,0.42604 0.08531,0.859098 0.17248,1.281625 m 1.318771,2.154611 c 0.0071,-2.55745 1.471972,-5.092797 3.54768,-6.5433338 0.81071,-0.566537 2.213251,-1.3043561 3.138973,-0.5703277 0.886994,0.7032697 0.484862,2.0500435 0.138434,2.9158845 -0.07532,0.188266 -0.154482,0.375736 -0.245217,0.557227 -0.115141,0.230319 -0.230952,0.460083 -0.352038,0.687245 -0.06156,0.115457 -0.147358,0.273586 -0.206118,0.36404 -0.208949,0.04283 -0.348453,0.07994 -0.505164,0.111463 -0.271055,0.05455 -0.536516,0.130538 -0.798693,0.217931 -0.889649,0.296555 -1.769995,0.678109 -2.600393,1.11382 -0.467774,0.245423 -0.934174,0.491252 -1.393068,0.753206 -0.223541,0.127588 -0.501974,0.319704 -0.721843,0.443904 m 2.774075,2.902245 c 0.0831,-0.132638 0.206006,-0.282347 0.299824,-0.408634 0.185743,-0.250026 0.377354,-0.495374 0.566254,-0.742969 0.664698,-0.871243 1.352521,-1.727922 1.990677,-2.618967 0.230078,-0.32126 0.461439,-0.64146 0.687041,-0.965862 0.08351,-0.120082 0.242995,-0.313083 0.332028,-0.425776 0.186372,-0.0294 0.446809,-0.05715 0.647226,-0.05715 0.661426,0 1.552626,0.146031 1.960696,0.724393 0.64694,0.916863 0.004,2.193506 -0.7348,2.833983 -1.54855,1.342734 -3.705488,1.660984 -5.687675,1.660984 M 92.697805,13.3514 c -0.103011,0.145194 -0.199213,0.230091 -0.296578,0.369193 -0.187768,0.268248 -0.376668,0.536574 -0.57296,0.798693 -0.591033,0.789348 -1.162246,1.593948 -1.735688,2.396077 -0.210113,0.293919 -0.408801,0.595492 -0.615681,0.891565 -0.06284,0.08992 -0.169026,0.256489 -0.222,0.330793 -0.176801,-0.0033 -0.491307,-0.02235 -0.65619,-0.04431 -0.491066,-0.06529 -0.980794,-0.118576 -1.467365,-0.215904 -0.539341,-0.107881 -1.075077,-0.257795 -1.578811,-0.480928 -0.161094,-0.07136 -0.395383,-0.189679 -0.570625,-0.289301 0.448442,-0.264403 1.027303,-0.649837 1.489125,-0.857336 0.323694,0.568764 0.784944,1.163004 1.514726,1.143536 0.528103,-0.01409 1.015844,-0.364836 1.248951,-0.83103 0.11542,-0.230839 0.180653,-0.521155 0.0545,-0.761545 -0.0464,-0.08841 -0.204335,-0.267485 -0.307737,-0.142687 -0.04724,0.05702 -0.01317,0.150303 -0.01155,0.216988 0.0036,0.147609 -0.01772,0.288289 -0.06835,0.427207 -0.209016,0.573403 -1.005442,0.942382 -1.404379,0.334334 -0.112213,-0.171031 -0.2067,-0.362197 -0.26937,-0.557228 -0.02,-0.06229 -0.05773,-0.172011 -0.06659,-0.233926 0.105629,-0.06999 0.279021,-0.171901 0.378746,-0.226139 0.298339,-0.162265 0.59575,-0.328355 0.891564,-0.495095 0.873958,-0.492683 1.789464,-0.925146 2.711841,-1.318717 0.480535,-0.205059 1.16571,-0.470834 1.679523,-0.612527 M 82.52493,17.788348 c -0.262529,0.112499 -0.534641,0.226902 -0.798692,0.330566 -0.54222,0.212898 -1.144453,0.412312 -1.727405,0.466733 -1.18225,0.110389 -2.463409,-0.01832 -3.356635,-0.898044 -0.519575,-0.51174 -0.835796,-1.455238 -0.22792,-2.033619 0.407035,-0.387273 1.015403,-0.42041 1.541388,-0.357462 1.200286,0.143616 2.319886,0.846816 3.306216,1.501207 0.32334,0.214533 0.643987,0.440116 0.947286,0.682286 0.10604,0.08466 0.231811,0.185565 0.353671,0.290283 m 6.445647,0.774491 c -0.09902,0.141571 -0.232637,0.321701 -0.329093,0.46946 -0.170715,0.261525 -0.33391,0.529384 -0.491901,0.798693 -0.300996,0.447476 -1.160167,2.153415 -1.259706,2.494603 -0.122107,-0.358615 -0.370295,-0.770116 -0.552305,-1.101537 -0.415394,-0.756362 -0.902076,-1.476743 -1.459582,-2.136039 -0.252591,-0.298708 -0.514153,-0.598406 -0.794309,-0.871334 -0.131691,-0.128273 -0.305324,-0.271545 -0.456415,-0.414247 0.200872,-0.102569 0.447945,-0.232935 0.642882,-0.335912 0.07606,-0.04017 0.193827,-0.09674 0.26365,-0.132913 0.08747,0.04946 0.326027,0.165102 0.442171,0.224633 0.305491,0.156602 0.626379,0.286398 0.947287,0.407426 0.923214,0.348158 1.990528,0.597052 2.980944,0.597167 m -2.145104,5.484503 c 0.16338,0.426689 0.259334,0.954884 0.26004,1.411646 1.4e-4,0.07496 0.003,0.467882 -0.128014,0.447266 -0.115662,-0.0182 -0.153887,-0.320684 -0.176102,-0.410118 -0.08429,-0.339242 -0.07816,-0.694549 -0.05039,-1.040159 0.01025,-0.127419 0.03905,-0.286219 0.09447,-0.408635 z"
       id="path849"
       sodipodi:nodetypes="csccccccccccscccccccscccccsccccccccccccccccccccccccccccsccccscccccccccccccccccccccccccscsscsccccscccccccccccsccccccccccccccccccccccccsccccccccccccc" />
  </g>
</svg>
