<?xml version="1.0" encoding="UTF-8" standalone="no"?>
<!-- Created with Inkscape (http://www.inkscape.org/) -->

<svg
   width="136.52393mm"
   height="19.168636mm"
   viewBox="0 0 136.52392 19.168636"
   version="1.1"
   id="svg2193"
   inkscape:version="1.2.1 (9c6d41e410, 2022-07-14)"
   sodipodi:docname="Title.svg"
   xmlns:inkscape="http://www.inkscape.org/namespaces/inkscape"
   xmlns:sodipodi="http://sodipodi.sourceforge.net/DTD/sodipodi-0.dtd"
   xmlns="http://www.w3.org/2000/svg"
   xmlns:svg="http://www.w3.org/2000/svg">
  <sodipodi:namedview
     id="namedview2195"
     pagecolor="#ffffff"
     bordercolor="#111111"
     borderopacity="1"
     inkscape:showpageshadow="0"
     inkscape:pageopacity="0"
     inkscape:pagecheckerboard="1"
     inkscape:deskcolor="#d1d1d1"
     inkscape:document-units="mm"
     showgrid="false"
     inkscape:zoom="1.6819304"
     inkscape:cx="229.4982"
     inkscape:cy="155.47611"
     inkscape:window-width="1827"
     inkscape:window-height="1051"
     inkscape:window-x="84"
     inkscape:window-y="-9"
     inkscape:window-maximized="1"
     inkscape:current-layer="layer1" />
  <defs
     id="defs2190" />
  <g
     inkscape:label="Ebene 1"
     inkscape:groupmode="layer"
     id="layer1"
     transform="translate(-18.117955,-7.1768634)">
    <text
       xml:space="preserve"
       style="font-style:normal;font-variant:normal;font-weight:normal;font-stretch:normal;font-size:19.7556px;line-height:1.25;font-family:'Edwardian Script ITC';-inkscape-font-specification:'Edwardian Script ITC';letter-spacing:0px;word-spacing:0px;stroke-width:0.264583"
       x="16.613134"
       y="23.359243"
       id="text2316"><tspan
         sodipodi:role="line"
         id="tspan2314"
         style="font-style:normal;font-variant:normal;font-weight:normal;font-stretch:normal;font-size:19.7556px;font-family:'Edwardian Script ITC';-inkscape-font-specification:'Edwardian Script ITC';stroke-width:0.264583"
         x="16.613134"
         y="23.359243">Tsemchoe        Christian</tspan></text>
    <path
       style="fill:#c00000;fill-opacity:1;stroke:none;stroke-width:0.0185742"
       d="m 83.943348,17.070209 c -0.170701,0.0952 -0.243186,0.135115 -0.415407,0.221227 -0.06794,0.03399 -0.172012,0.09441 -0.231252,0.120903 -0.143087,-0.104933 -0.452149,-0.358805 -0.604588,-0.476192 -0.466344,-0.359113 -0.946822,-0.696237 -1.448791,-1.004086 -1.146978,-0.703443 -2.460493,-1.248951 -3.826294,-1.18916 -0.443676,0.01942 -0.947801,0.187452 -1.281622,0.485438 -0.555459,0.4958 -0.693171,1.341989 -0.418795,2.021361 0.239033,0.591847 0.780742,1.016381 1.347506,1.27588 1.266058,0.579702 2.719381,0.595566 4.049185,0.258834 0.435009,-0.110145 0.868457,-0.258852 1.281623,-0.43356 0.130206,-0.05505 0.453334,-0.168223 0.557227,-0.208274 0.110267,0.08907 0.309075,0.252036 0.408633,0.351593 0.323211,0.323209 0.632899,0.650489 0.924069,1.00301 0.661057,0.800364 1.175842,1.689922 1.666555,2.600394 0.141071,0.261708 0.268844,0.530016 0.395761,0.79869 0.06334,0.134069 0.132073,0.293116 0.196388,0.455289 -0.05269,0.180618 -0.09571,0.323826 -0.128721,0.473425 -0.06522,0.295755 -0.105354,0.607935 -0.118597,0.910139 -0.02359,0.538948 0.02877,1.8225 0.872265,1.580293 0.305769,-0.08786 0.409469,-0.447452 0.453397,-0.725879 0.108678,-0.688809 -0.0056,-1.44272 -0.22432,-2.098891 -0.06898,-0.206934 -0.157561,-0.417451 -0.250081,-0.632486 0.04099,-0.129547 0.111405,-0.348083 0.161722,-0.463394 0.131747,-0.301979 0.276775,-0.601676 0.433598,-0.891562 0.528567,-0.97712 1.173647,-2.023137 1.841503,-2.912288 0.202491,-0.0067 0.597907,-0.0038 0.816099,-0.0038 0.777072,0 1.558695,-0.07792 2.32178,-0.230322 1.453249,-0.290224 3.010887,-0.886677 3.911177,-2.128606 0.18946,-0.261304 0.33972,-0.545993 0.43557,-0.854418 0.0754,-0.242632 0.11237,-0.489152 0.11107,-0.742969 -0.001,-0.192777 -0.0383,-0.39323 -0.099,-0.575815 -0.43018,-1.291467 -1.89754,-1.541716 -3.077194,-1.541716 0.121475,-0.361455 0.331735,-0.699544 0.467885,-1.058731 0.300159,-0.791951 0.456559,-1.6922268 0.258739,-2.5260978 -0.06891,-0.290025 -0.187414,-0.573788 -0.360712,-0.8172659 -1.046008,-1.4705105 -3.16765,-0.9687021 -4.433671,-0.107833 -0.285635,0.1942199 -0.557897,0.4048619 -0.817267,0.6332129 -1.491437,1.313062 -2.475352,3.2795708 -2.77826,5.2326328 -0.06181,0.398662 -0.09178,0.803839 -0.0819,1.207328 0.0044,0.183102 0.01768,0.426465 0.03361,0.610294 -0.120128,0.08356 -0.292373,0.202439 -0.386804,0.258981 -0.333259,0.199542 -0.669509,0.394089 -1.003009,0.593169 -0.103533,0.0618 -0.26074,0.154187 -0.392386,0.229173 -0.07978,-0.05012 -0.266953,-0.178411 -0.350575,-0.24747 -0.264348,-0.218324 -0.521397,-0.443479 -0.748263,-0.701178 -0.932762,-1.059454 -1.714625,-2.534789 -1.428563,-3.993464 0.0915,-0.466509 0.339258,-0.949569 0.802333,-1.136312 0.05814,-0.02345 0.435918,-0.08075 0.359188,-0.169676 -0.206694,-0.239572 -0.730747,0.08964 -0.897842,0.222482 -0.618503,0.491714 -0.811824,1.309556 -0.759872,2.067941 0.08006,1.16927 0.633437,2.375871 1.430217,3.231918 0.2074,0.222835 0.425498,0.433282 0.667001,0.619434 0.14982,0.115475 0.318366,0.238981 0.491162,0.343302 m 1.700598,-3.934612 c 0.13758,-0.0482 0.111446,-0.342883 0.111446,-0.464355 0,-0.470841 -0.0344,-0.930979 -0.130076,-1.39307 -0.343809,-1.6604448 -1.458115,-3.3782837 -3.213288,-3.7582743 -0.25248,-0.054657 -0.52162,-0.08406 -0.780118,-0.066354 -1.230524,0.084269 -2.01746,1.0582795 -2.358464,2.1715245 -0.540585,1.7646838 -0.06956,3.9338188 1.100059,5.3493808 0.288681,0.349383 0.619823,0.66505 0.998365,0.916323 0.125544,0.08333 0.27971,0.203946 0.427208,0.241707 0.063,0.01615 0.176567,-0.01171 0.145325,-0.09958 -0.06635,-0.186614 -0.349382,-0.40046 -0.4781,-0.556948 -0.254876,-0.309889 -0.458766,-0.663787 -0.637673,-1.021583 -0.681452,-1.362921 -1.084383,-3.126379 -0.694231,-4.6249838 0.07692,-0.295406 0.207586,-0.573518 0.361901,-0.835842 0.118782,-0.201899 0.2793,-0.395043 0.448363,-0.556493 0.949627,-0.9068685 2.245811,-0.2786617 3.064026,0.455667 0.439968,0.394874 0.768639,0.941219 1.009417,1.4753198 0.211895,0.47004 0.368383,0.976987 0.45336,1.485938 0.07116,0.42604 0.08531,0.859098 0.17248,1.281625 m 1.318771,2.154611 c 0.0071,-2.55745 1.471972,-5.092797 3.54768,-6.5433338 0.81071,-0.566537 2.213251,-1.3043561 3.138973,-0.5703277 0.886994,0.7032697 0.484862,2.0500435 0.138434,2.9158845 -0.07532,0.188266 -0.154482,0.375736 -0.245217,0.557227 -0.115141,0.230319 -0.230952,0.460083 -0.352038,0.687245 -0.06156,0.115457 -0.147358,0.273586 -0.206118,0.36404 -0.208949,0.04283 -0.348453,0.07994 -0.505164,0.111463 -0.271055,0.05455 -0.536516,0.130538 -0.798693,0.217931 -0.889649,0.296555 -1.769995,0.678109 -2.600393,1.11382 -0.467774,0.245423 -0.934174,0.491252 -1.393068,0.753206 -0.223541,0.127588 -0.501974,0.319704 -0.721843,0.443904 m 2.774075,2.902245 c 0.0831,-0.132638 0.206006,-0.282347 0.299824,-0.408634 0.185743,-0.250026 0.377354,-0.495374 0.566254,-0.742969 0.664698,-0.871243 1.352521,-1.727922 1.990677,-2.618967 0.230078,-0.32126 0.461439,-0.64146 0.687041,-0.965862 0.08351,-0.120082 0.242995,-0.313083 0.332028,-0.425776 0.186372,-0.0294 0.446809,-0.05715 0.647226,-0.05715 0.661426,0 1.552626,0.146031 1.960696,0.724393 0.64694,0.916863 0.004,2.193506 -0.7348,2.833983 -1.54855,1.342734 -3.705488,1.660984 -5.687675,1.660984 M 92.697805,13.3514 c -0.103011,0.145194 -0.199213,0.230091 -0.296578,0.369193 -0.187768,0.268248 -0.376668,0.536574 -0.57296,0.798693 -0.591033,0.789348 -1.162246,1.593948 -1.735688,2.396077 -0.210113,0.293919 -0.408801,0.595492 -0.615681,0.891565 -0.06284,0.08992 -0.169026,0.256489 -0.222,0.330793 -0.176801,-0.0033 -0.491307,-0.02235 -0.65619,-0.04431 -0.491066,-0.06529 -0.980794,-0.118576 -1.467365,-0.215904 -0.539341,-0.107881 -1.075077,-0.257795 -1.578811,-0.480928 -0.161094,-0.07136 -0.395383,-0.189679 -0.570625,-0.289301 0.448442,-0.264403 1.027303,-0.649837 1.489125,-0.857336 0.323694,0.568764 0.784944,1.163004 1.514726,1.143536 0.528103,-0.01409 1.015844,-0.364836 1.248951,-0.83103 0.11542,-0.230839 0.180653,-0.521155 0.0545,-0.761545 -0.0464,-0.08841 -0.204335,-0.267485 -0.307737,-0.142687 -0.04724,0.05702 -0.01317,0.150303 -0.01155,0.216988 0.0036,0.147609 -0.01772,0.288289 -0.06835,0.427207 -0.209016,0.573403 -1.005442,0.942382 -1.404379,0.334334 -0.112213,-0.171031 -0.2067,-0.362197 -0.26937,-0.557228 -0.02,-0.06229 -0.05773,-0.172011 -0.06659,-0.233926 0.105629,-0.06999 0.279021,-0.171901 0.378746,-0.226139 0.298339,-0.162265 0.59575,-0.328355 0.891564,-0.495095 0.873958,-0.492683 1.789464,-0.925146 2.711841,-1.318717 0.480535,-0.205059 1.16571,-0.470834 1.679523,-0.612527 M 82.52493,17.788348 c -0.262529,0.112499 -0.534641,0.226902 -0.798692,0.330566 -0.54222,0.212898 -1.144453,0.412312 -1.727405,0.466733 -1.18225,0.110389 -2.463409,-0.01832 -3.356635,-0.898044 -0.519575,-0.51174 -0.835796,-1.455238 -0.22792,-2.033619 0.407035,-0.387273 1.015403,-0.42041 1.541388,-0.357462 1.200286,0.143616 2.319886,0.846816 3.306216,1.501207 0.32334,0.214533 0.643987,0.440116 0.947286,0.682286 0.10604,0.08466 0.231811,0.185565 0.353671,0.290283 m 6.445647,0.774491 c -0.09902,0.141571 -0.232637,0.321701 -0.329093,0.46946 -0.170715,0.261525 -0.33391,0.529384 -0.491901,0.798693 -0.300996,0.447476 -1.160167,2.153415 -1.259706,2.494603 -0.122107,-0.358615 -0.370295,-0.770116 -0.552305,-1.101537 -0.415394,-0.756362 -0.902076,-1.476743 -1.459582,-2.136039 -0.252591,-0.298708 -0.514153,-0.598406 -0.794309,-0.871334 -0.131691,-0.128273 -0.305324,-0.271545 -0.456415,-0.414247 0.200872,-0.102569 0.447945,-0.232935 0.642882,-0.335912 0.07606,-0.04017 0.193827,-0.09674 0.26365,-0.132913 0.08747,0.04946 0.326027,0.165102 0.442171,0.224633 0.305491,0.156602 0.626379,0.286398 0.947287,0.407426 0.923214,0.348158 1.990528,0.597052 2.980944,0.597167 m -2.145104,5.484503 c 0.16338,0.426689 0.259334,0.954884 0.26004,1.411646 1.4e-4,0.07496 0.003,0.467882 -0.128014,0.447266 -0.115662,-0.0182 -0.153887,-0.320684 -0.176102,-0.410118 -0.08429,-0.339242 -0.07816,-0.694549 -0.05039,-1.040159 0.01025,-0.127419 0.03905,-0.286219 0.09447,-0.408635 z"
       id="path849"
       sodipodi:nodetypes="csccccccccccscccccccscccccsccccccccccccccccccccccccccccsccccscccccccccccccccccccccccccscsscsccccscccccccccccsccccccccccccccccccccccccsccccccccccccc" />
  </g>
</svg>
