<?xml version="1.0" encoding="UTF-8" standalone="no"?>
<!-- Created with Inkscape (http://www.inkscape.org/) -->

<svg
   width="132.09543mm"
   height="131.49866mm"
   viewBox="0 0 132.09543 131.49866"
   version="1.1"
   id="svg5"
   xml:space="preserve"
   inkscape:version="1.2.1 (9c6d41e410, 2022-07-14)"
   sodipodi:docname="Wappen.svg"
   xmlns:inkscape="http://www.inkscape.org/namespaces/inkscape"
   xmlns:sodipodi="http://sodipodi.sourceforge.net/DTD/sodipodi-0.dtd"
   xmlns:xlink="http://www.w3.org/1999/xlink"
   xmlns="http://www.w3.org/2000/svg"
   xmlns:svg="http://www.w3.org/2000/svg"><sodipodi:namedview
     id="namedview7"
     pagecolor="#ffffff"
     bordercolor="#111111"
     borderopacity="1"
     inkscape:showpageshadow="0"
     inkscape:pageopacity="0"
     inkscape:pagecheckerboard="1"
     inkscape:deskcolor="#d1d1d1"
     inkscape:document-units="mm"
     showgrid="false"
     inkscape:zoom="0.70710678"
     inkscape:cx="234.75945"
     inkscape:cy="205.76807"
     inkscape:window-width="1827"
     inkscape:window-height="1051"
     inkscape:window-x="84"
     inkscape:window-y="-9"
     inkscape:window-maximized="1"
     inkscape:current-layer="layer3"><inkscape:grid
       type="xygrid"
       id="grid1151"
       originx="-39.714825"
       originy="-29.200217" /><sodipodi:guide
       position="66.047717,23.125875"
       orientation="0,793.70079"
       id="guide1153"
       inkscape:locked="false" /><sodipodi:guide
       position="170.28518,160.69888"
       orientation="1122.5197,0"
       id="guide1155"
       inkscape:locked="false" /><sodipodi:guide
       position="170.28518,-136.30113"
       orientation="0,-793.70079"
       id="guide1157"
       inkscape:locked="false" /><sodipodi:guide
       position="66.047717,23.125875"
       orientation="-1122.5197,0"
       id="guide1159"
       inkscape:locked="false" /><sodipodi:guide
       position="66.047717,40.634725"
       orientation="0,793.70079"
       id="guide1712"
       inkscape:locked="false" /><sodipodi:guide
       position="107.1946,23.082375"
       orientation="1122.5197,0"
       id="guide1714"
       inkscape:locked="false" /><sodipodi:guide
       position="170.28518,-136.30113"
       orientation="0,-793.70079"
       id="guide1716"
       inkscape:locked="false" /><sodipodi:guide
       position="24.953063,23.125875"
       orientation="-1122.5197,0"
       id="guide1718"
       inkscape:locked="false" /></sodipodi:namedview><defs
     id="defs2" /><g
     inkscape:groupmode="layer"
     id="layer3"
     inkscape:label="Ebene 3"
     style="display:none"
     transform="translate(-39.714824,-29.200217)"><path
       style="display:inline;fill:none;stroke:#000000;stroke-width:0.264583px;stroke-linecap:butt;stroke-linejoin:miter;stroke-opacity:1"
       d="m 105.72838,137.62487 c 6.91896,-7.05252 14.63112,-7.4619 22.5967,-10.30264 11.27885,-3.88313 19.82522,-10.54811 21.64682,-25.45925 0.49497,-4.352366 0.72703,-9.066244 0.57312,-13.140524 -0.29619,-7.045055 -2.54731,-13.624618 -3.38179,-20.535715 -0.67448,-7.588927 0.43275,-15.339626 2.11345,-23.136772 -13.13639,-6.808863 -27.65704,-14.792117 -43.52049,-14.849807"
       id="path379"
       sodipodi:nodetypes="ccccccc" /></g><g
     inkscape:groupmode="layer"
     id="g1097"
     inkscape:label="Shield-B"
     style="display:none"
     transform="translate(-39.714824,-29.200217)"><path
       id="path1095"
       style="fill:none;stroke:#000000;stroke-width:2;stroke-linecap:butt;stroke-linejoin:miter;stroke-dasharray:none;stroke-opacity:1"
       d="m 105.75634,30.200224 c -15.863439,0.05769 -18.568847,12.223071 -43.520862,14.849739 1.680698,7.797139 2.788045,15.547653 2.113566,23.136573 -0.834479,6.91109 -3.085516,13.490649 -3.381706,20.535697 -0.15391,4.074276 0.07812,8.788438 0.573092,13.140797 1.821598,14.91113 10.367902,21.5763 21.64674,25.45943 7.944281,2.83315 15.670682,3.25223 22.57537,10.25054 v 0 c 6.90469,-6.99831 14.61816,-7.41739 22.56244,-10.25054 11.27884,-3.88313 19.82515,-10.5483 21.64674,-25.45943 0.49497,-4.352359 0.72701,-9.066521 0.5731,-13.140797 -0.29619,-7.045048 -2.54723,-13.624607 -3.38171,-20.535697 -0.67448,-7.58892 0.43287,-15.339434 2.11357,-23.136573 -24.95202,-2.626668 -27.65691,-14.792049 -43.52034,-14.849739 z"
       sodipodi:nodetypes="cccccccccccccc"
       inkscape:label="SchieldPathB" /></g><g
     inkscape:groupmode="layer"
     id="g488"
     inkscape:label="Shield-A"
     style="display:inline"
     transform="translate(-39.714824,-29.200217)"><path
       id="path379-4"
       style="display:inline;fill:none;fill-opacity:1;stroke:#000000;stroke-width:2;stroke-linecap:butt;stroke-linejoin:miter;stroke-dasharray:none;stroke-opacity:1"
       d="m 105.75634,30.200224 c -15.863444,0.05769 -30.384487,8.040883 -43.520862,14.849739 1.680698,7.797139 2.788045,15.547653 2.113566,23.136573 -0.834479,6.91109 -3.085516,13.490649 -3.381706,20.535697 -0.15391,4.074276 0.07812,8.788438 0.573092,13.140797 1.821598,14.91113 10.367905,21.5763 21.64674,25.45943 9.149446,3.82761 17.29794,5.13704 22.56917,10.27483 6.7163,-6.56409 15.46032,-7.80953 22.56864,-10.27483 11.27884,-3.88313 19.82515,-10.5483 21.64674,-25.45943 0.49497,-4.352359 0.72701,-9.066521 0.5731,-13.140797 -0.29619,-7.045048 -2.54723,-13.624607 -3.38171,-20.535697 -0.67448,-7.58892 0.43287,-15.339434 2.11357,-23.136573 C 136.1403,38.241107 121.61977,30.257914 105.75634,30.200224 Z"
       sodipodi:nodetypes="ccccccccccccc"
       inkscape:label="ShieldPathA" /></g><g
     inkscape:groupmode="layer"
     id="layer4"
     inkscape:label="Banner"
     style="display:inline"
     transform="translate(-39.714824,-29.200217)"><g
       id="g1710"
       style="display:inline"><path
         id="path1149-9"
         style="display:inline;fill:#d9d9d9;fill-opacity:1;stroke:none;stroke-width:1;stroke-linecap:butt;stroke-linejoin:miter;stroke-dasharray:none;stroke-opacity:1"
         d="m 105.76254,106.03849 c -6.293557,0.0704 -11.72361,0.54738 -16.697175,1.44849 -8.933941,1.69963 -16.75259,4.77178 -23.845573,8.99583 -5.453705,3.22935 -9.175036,6.53786 -12.435417,10.18646 -0.85497,0.96001 -0.980963,1.64223 -0.09922,2.56315 l 7.604187,7.24866 c -1.831488,1.83455 -4.132995,1.85295 -5.635831,1.89445 -1.298818,0.0133 -2.532782,0.0223 -4.250387,0.51418 -1.121786,0.37901 -2.085392,0.80693 -2.910417,1.52136 -0.670908,0.62283 -0.723661,1.47179 -0.04961,2.05052 l 3.307292,2.51354 c 0.819138,3.28233 -1.340333,5.94844 -3.042709,8.48424 -1.811951,2.29182 -4.791865,5.97637 -6.548437,6.31589 2.20056,1.22179 5.033006,-0.49938 6.978902,-1.34152 2.05517,-0.96473 8.430843,-3.73842 10.607621,-8.10803 0.784379,-1.55504 0.163972,-1.59144 -1.356506,-0.65474 -0.858309,0.50485 -1.33281,-0.2148 -1.35599,-0.95912 -0.0688,-2.73622 2.083214,-3.59923 4.366142,-3.59823 5.167135,0.0337 9.343748,0.35692 13.849284,-4.0907 1.139459,-1.24197 2.324927,-2.1797 3.206006,-3.70004 0.385894,-0.80232 0.232455,-1.76602 -0.222726,-2.24172 l 0.0036,-0.005 -3.844727,-3.9486 -0.02894,0.0119 c 5.199849,-2.8398 12.28605,-5.67363 20.50986,-7.14685 3.849416,-0.69796 8.100721,-0.96427 11.890751,-0.99477 3.79001,0.0305 8.04133,0.29681 11.89074,0.99477 16.58814,2.97161 28.55775,11.47834 29.72377,14.40584 1.19493,3.04289 -1.31761,5.09253 -5.05137,2.66598 -2.3191,-1.6117 -4.41852,-3.28217 -6.30246,-5.67097 -1.51805,-1.65793 -2.67534,0.42694 -1.95285,1.92908 0.88109,1.52034 2.06655,2.45807 3.20601,3.70004 4.50552,4.44762 8.68214,4.1244 13.84928,4.0907 2.28293,-0.001 4.43492,0.86201 4.36614,3.59823 -0.0232,0.74432 -0.49768,1.46397 -1.35599,0.95912 -1.52048,-0.9367 -2.14089,-0.9003 -1.3565,0.65474 2.17676,4.36961 8.55245,7.1433 10.60762,8.10803 1.94588,0.84214 4.77833,2.56331 6.9789,1.34152 -1.75658,-0.33952 -4.73649,-4.02407 -6.54844,-6.31589 -1.70238,-2.5358 -3.86185,-5.20191 -3.04271,-8.48424 l 3.30729,-2.51354 c 0.67406,-0.57873 0.62128,-1.42769 -0.0496,-2.05052 -0.825,-0.71443 -1.78862,-1.14235 -2.91041,-1.52136 -1.71761,-0.49191 -2.95157,-0.50089 -4.25039,-0.51418 -1.50284,-0.0415 -3.80434,-0.0599 -5.63583,-1.89445 l 7.60419,-7.24866 c 0.88175,-0.92092 0.75571,-1.60314 -0.0992,-2.56315 -3.26038,-3.6486 -6.98171,-6.95711 -12.43542,-10.18646 -7.09298,-4.22405 -14.91163,-7.2962 -23.84557,-8.99583 -4.97358,-0.90111 -10.40363,-1.37805 -16.69717,-1.44849 z" /><path
         id="path1540"
         style="display:inline;fill:#333333;fill-opacity:1;stroke:#333333;stroke-width:1;stroke-linecap:butt;stroke-linejoin:miter;stroke-dasharray:none;stroke-opacity:1"
         d="m 73.390869,131.12792 c -3.509347,1.81821 -6.429952,3.80782 -8.848555,6.58822 -0.907999,1.29295 -0.912735,2.89242 0.03721,3.88607 1.337691,1.05718 3.081614,0.40378 4.301546,-0.33951 1.788685,-1.22349 4.067083,-2.80621 5.976379,-5.08858 0.353948,-0.42575 0.532082,-0.82703 1.374593,-1.32085 0.368701,-0.0791 0.695422,-0.0807 0.912606,0.11885 z m 3.753776,3.8442 0.09095,0.10439 c -0.02757,-0.0397 -0.05815,-0.0743 -0.09095,-0.10439 z m -12.565124,6.63009 -0.08527,-0.0755 c 0.0272,0.0255 0.05566,0.0506 0.08527,0.0755 z m -0.08527,-0.0755 c -0.510314,-0.47876 -0.607016,-1.06538 -0.646473,-1.66656 l -3.558439,-3.37912 -0.752409,0.63975 z"
         sodipodi:nodetypes="ccccccccccccccccccc" /><path
         style="display:inline;fill:#333333;fill-opacity:1;stroke:#333333;stroke-width:1;stroke-linecap:butt;stroke-linejoin:miter;stroke-dasharray:none;stroke-opacity:1"
         d="m 50.75039,144.97513 5.282665,3.73697 c 0.06092,-0.66527 0.0535,-1.3247 0.331859,-1.71617 l 2.540281,2.06012 c 0.451324,0.12611 0.02806,1.0516 -0.322604,1.58043 -0.06243,-1.06544 -0.958652,-0.87027 -1.467376,-0.84019 -0.217274,0.0847 -0.43722,0.052 -0.65962,-0.0886 l -5.550678,-3.82682 c -0.01573,-0.28074 -0.09062,-0.59649 -0.154527,-0.90574 z"
         id="path1548"
         sodipodi:nodetypes="ccccccccc" /><path
         style="display:inline;fill:none;stroke:#000000;stroke-width:1;stroke-linecap:butt;stroke-linejoin:miter;stroke-dasharray:none;stroke-opacity:1"
         d="m 60.289323,136.48118 3.558511,3.37926"
         id="path1545" /><path
         style="fill:none;stroke:#000000;stroke-width:1;stroke-linecap:butt;stroke-linejoin:miter;stroke-dasharray:none;stroke-opacity:1"
         d="m 50.75039,144.97513 5.282665,3.73697"
         id="path1553" /><path
         id="path1540-1"
         style="display:inline;fill:#333333;fill-opacity:1;stroke:#333333;stroke-width:1;stroke-linecap:butt;stroke-linejoin:miter;stroke-dasharray:none;stroke-opacity:1"
         d="m 138.13421,131.12792 c 3.50935,1.81821 6.42995,3.80782 8.84856,6.58822 0.908,1.29295 0.91273,2.89242 -0.0372,3.88607 -1.3377,1.05718 -3.08162,0.40378 -4.30155,-0.33951 -1.78869,-1.22349 -4.06708,-2.80621 -5.97638,-5.08858 -0.35395,-0.42575 -0.53208,-0.82703 -1.37459,-1.32085 -0.3687,-0.0791 -0.69542,-0.0807 -0.91261,0.11885 z m -3.75378,3.8442 -0.0909,0.10439 c 0.0276,-0.0397 0.0581,-0.0743 0.0909,-0.10439 z m 12.56513,6.63009 0.0853,-0.0755 c -0.0272,0.0255 -0.0557,0.0506 -0.0853,0.0755 z m 0.0853,-0.0755 c 0.51031,-0.47876 0.60701,-1.06538 0.64647,-1.66656 l 3.55844,-3.37912 0.75241,0.63975 z"
         sodipodi:nodetypes="ccccccccccccccccccc" /><path
         style="display:inline;fill:#333333;fill-opacity:1;stroke:#333333;stroke-width:1;stroke-linecap:butt;stroke-linejoin:miter;stroke-dasharray:none;stroke-opacity:1"
         d="m 160.77469,144.97513 -5.28267,3.73697 c -0.0609,-0.66527 -0.0535,-1.3247 -0.33185,-1.71617 l -2.54029,2.06012 c -0.45132,0.12611 -0.0281,1.0516 0.32261,1.58043 0.0624,-1.06544 0.95865,-0.87027 1.46737,-0.84019 0.21728,0.0847 0.43722,0.052 0.65962,-0.0886 l 5.55068,-3.82682 c 0.0157,-0.28074 0.0906,-0.59649 0.15453,-0.90574 z"
         id="path1548-1"
         sodipodi:nodetypes="ccccccccc" /><path
         style="display:inline;fill:none;stroke:#000000;stroke-width:1;stroke-linecap:butt;stroke-linejoin:miter;stroke-dasharray:none;stroke-opacity:1"
         d="m 151.23576,136.48118 -3.55851,3.37926"
         id="path1545-5" /><path
         style="fill:none;stroke:#000000;stroke-width:1;stroke-linecap:butt;stroke-linejoin:miter;stroke-dasharray:none;stroke-opacity:1"
         d="m 160.77469,144.97513 -5.28267,3.73697"
         id="path1553-1" /><path
         id="path1149"
         style="display:inline;fill:none;stroke:#000000;stroke-width:1;stroke-linecap:butt;stroke-linejoin:miter;stroke-dasharray:none;stroke-opacity:1"
         d="m 105.76254,106.03849 c -6.293556,0.0704 -11.7236,0.54738 -16.697175,1.44849 -8.933947,1.69963 -16.752583,4.77177 -23.845573,8.99583 -5.453713,3.22935 -9.175034,6.53786 -12.435417,10.18646 -0.854971,0.96001 -0.980965,1.64223 -0.09922,2.56315 l 7.604187,7.24866 c -1.831488,1.83456 -4.132989,1.85295 -5.635831,1.89445 -1.298819,0.0133 -2.53278,0.0223 -4.250387,0.51418 -1.121787,0.37901 -2.085392,0.80693 -2.910417,1.52136 -0.670909,0.62283 -0.723663,1.47179 -0.04961,2.05052 l 3.307292,2.51354 c 0.819139,3.28233 -1.340332,5.94844 -3.042709,8.48424 -1.811953,2.29183 -4.791863,5.97637 -6.548437,6.31589 2.200562,1.22179 5.033004,-0.49938 6.978902,-1.34152 2.055172,-0.96473 8.430844,-3.73841 10.607621,-8.10803 0.784382,-1.55504 0.163974,-1.59144 -1.356506,-0.65474 -0.858309,0.50485 -1.33281,-0.2148 -1.35599,-0.95912 -0.06878,-2.73623 2.083213,-3.59923 4.366142,-3.59823 5.167134,0.0337 9.343752,0.35693 13.849284,-4.0907 1.13946,-1.24197 2.324919,-2.1797 3.206006,-3.70004 0.722489,-1.50215 -0.434806,-3.58701 -1.952853,-1.92908 -1.883938,2.3888 -3.983359,4.05926 -6.302457,5.67097 -3.733761,2.42655 -6.246293,0.37692 -5.051372,-2.66598 1.166022,-2.9275 13.135626,-11.43423 29.723768,-14.40584 3.849426,-0.69796 8.100722,-0.96427 11.890752,-0.99477 3.79002,0.0305 8.04132,0.29681 11.89074,0.99477 16.58815,2.97161 28.55775,11.47834 29.72377,14.40584 1.19493,3.0429 -1.31761,5.09253 -5.05137,2.66598 -2.3191,-1.61171 -4.41852,-3.28217 -6.30246,-5.67097 -1.51805,-1.65793 -2.67534,0.42693 -1.95285,1.92908 0.88109,1.52034 2.06655,2.45807 3.20601,3.70004 4.50553,4.44763 8.68214,4.1244 13.84928,4.0907 2.28293,-0.001 4.43492,0.862 4.36614,3.59823 -0.0232,0.74432 -0.49768,1.46397 -1.35599,0.95912 -1.52048,-0.9367 -2.14089,-0.9003 -1.3565,0.65474 2.17677,4.36962 8.55245,7.1433 10.60762,8.10803 1.94589,0.84214 4.77833,2.56331 6.9789,1.34152 -1.75658,-0.33952 -4.73649,-4.02406 -6.54844,-6.31589 -1.70238,-2.5358 -3.86185,-5.20191 -3.04271,-8.48424 l 3.30729,-2.51354 c 0.67406,-0.57873 0.62129,-1.42769 -0.0496,-2.05052 -0.82501,-0.71443 -1.78862,-1.14235 -2.91041,-1.52136 -1.71761,-0.49191 -2.95157,-0.50089 -4.25039,-0.51418 -1.50284,-0.0415 -3.80434,-0.0599 -5.63583,-1.89445 l 7.60419,-7.24866 c 0.88175,-0.92092 0.75573,-1.60314 -0.0992,-2.56315 -3.26038,-3.6486 -6.98171,-6.95711 -12.43542,-10.18646 -7.09299,-4.22406 -14.91162,-7.2962 -23.84557,-8.99583 -4.97358,-0.90111 -10.40362,-1.37805 -16.69717,-1.44849 z" /></g></g><g
     inkscape:groupmode="layer"
     id="layer5"
     inkscape:label="Bachlama"
     style="display:inline"
     transform="translate(-39.714824,-29.200217)"><text
       xml:space="preserve"
       style="font-style:normal;font-variant:normal;font-weight:normal;font-stretch:normal;font-size:14.1111px;line-height:1.25;font-family:Forte;-inkscape-font-specification:Forte;text-align:center;letter-spacing:0px;word-spacing:0px;text-anchor:middle;stroke-width:0.264583"
       id="text1833"><textPath
         xlink:href="#path1975"
         startOffset="50%"
         id="textPath2049"><tspan
           id="tspan1831"
           style="font-style:normal;font-variant:normal;font-weight:normal;font-stretch:normal;font-family:Forte;-inkscape-font-specification:Forte;text-align:center;text-anchor:middle;stroke-width:0.264583">BACHLAMA</tspan></textPath></text></g><g
     inkscape:groupmode="layer"
     id="layer6"
     inkscape:label="Bachlama.net"
     style="display:none"
     transform="translate(-39.714824,-29.200217)"><text
       xml:space="preserve"
       style="font-size:12.3472px;line-height:1.25;font-family:Arial;-inkscape-font-specification:Arial;text-align:center;letter-spacing:0px;word-spacing:0px;text-anchor:middle;stroke-width:0.264583"
       id="text2095"><textPath
         xlink:href="#path1975"
         startOffset="50%"
         id="textPath2097"><tspan
           id="tspan2093"
           style="font-size:12.3472px;text-align:center;text-anchor:middle;stroke-width:0.264583">bachlama.net</tspan></textPath></text></g><g
     inkscape:groupmode="layer"
     id="layer7"
     inkscape:label="Text-Alignment"
     style="display:none"
     transform="translate(-39.714824,-29.200217)"><path
       id="path1975"
       style="display:inline;fill:none;stroke:#000000;stroke-width:1;stroke-linecap:butt;stroke-linejoin:miter;stroke-dasharray:none;stroke-opacity:1"
       d="m 64.661249,133.05865 c 2.680471,-3.4653 14.005276,-10.83997 29.210695,-13.56386 3.849441,-0.69796 8.100766,-0.96427 11.890816,-0.99477 3.79004,0.0305 8.04137,0.29681 11.89081,0.99477 15.20542,2.72389 26.53023,10.09856 29.21069,13.56386" /></g></svg>
